<svg id="egGEyf1FuO21" xmlns="http://www.w3.org/2000/svg" xmlns:xlink="http://www.w3.org/1999/xlink" viewBox="0 0 300 300" shape-rendering="geometricPrecision" text-rendering="geometricPrecision"><line x1="-23.331102" y1="-23.331101" x2="23.331101" y2="23.331101" transform="translate(67.121801 114.071396)" fill="none" stroke="#3f5787" stroke-width="3"/><line x1="-7.947958" y1="7.947958" x2="7.947958" y2="-7.947958" transform="translate(51.738657 81.254023)" fill="none" stroke="#3f5787" stroke-width="3"/><line x1="-23.71568" y1="-23.71568" x2="23.71568" y2="23.71568" transform="translate(83.402295 97.021745)" fill="none" stroke="#3f5787" stroke-width="3"/><line x1="-8.332537" y1="8.332537" x2="8.332537" y2="-8.332537" transform="translate(98.785439 129.069962)" fill="none" stroke="#3f5787" stroke-width="3"/><line x1="-4.166269" y1="-4.166269" x2="4.166269" y2="4.166269" transform="translate(102.951708 133.236231)" fill="none" stroke="#3f5787" stroke-width="3"/><line x1="-4.166268" y1="4.166268" x2="4.166268" y2="-4.166268" transform="translate(111.540628 133.23623)" fill="none" stroke="#3f5787" stroke-width="3"/><line x1="4.166268" y1="-4.166268" x2="-4.166268" y2="4.166268" transform="translate(102.951707 141.568765)" fill="none" stroke="#3f5787" stroke-width="3"/><line x1="9.742658" y1="9.742658" x2="-9.742657" y2="-9.742657" transform="translate(41.996 71.511366)" fill="none" stroke="#3f5787" stroke-width="3"/><line x1="8.140247" y1="-8.140247" x2="-8.140247" y2="8.140247" transform="translate(75.262048 105.161992)" fill="none" stroke="#3f5787" stroke-width="3"/><line x1="0" y1="0" x2="0" y2="0" transform="translate(67.121801 89.201981)" fill="none" stroke="#3f5787" stroke-width="3"/><line x1="3.909882" y1="-3.909882" x2="-3.909882" y2="3.909882" transform="translate(71.352166 93.111863)" fill="none" stroke="#3f5787" stroke-width="3"/></svg>
